<svg width="34" height="34" viewBox="0 0 34 34" fill="none" xmlns="http://www.w3.org/2000/svg">
<circle cx="17" cy="17" r="17" fill="white"/>
<path d="M22.66 16.2C22.43 15.9 22.15 15.64 21.89 15.38C21.22 14.78 20.46 14.35 19.82 13.72C18.33 12.26 18 9.85 18.95 8C18 8.23 17.17 8.75 16.46 9.32C13.87 11.4 12.85 15.07 14.07 18.22C14.11 18.32 14.15 18.42 14.15 18.55C14.15 18.77 14 18.97 13.8 19.05C13.57 19.15 13.33 19.09 13.14 18.93C13.083 18.8828 13.0354 18.8251 13 18.76C11.87 17.33 11.69 15.28 12.45 13.64C10.78 15 9.87005 17.3 10 19.47C10.06 19.97 10.12 20.47 10.29 20.97C10.43 21.57 10.7 22.17 11 22.7C12.08 24.43 13.95 25.67 15.96 25.92C18.1 26.19 20.39 25.8 22.0301 24.32C23.8601 22.66 24.5 20 23.56 17.72L23.43 17.46C23.22 17 22.66 16.2 22.66 16.2ZM19.5 22.5C19.22 22.74 18.76 23 18.4 23.1C17.28 23.5 16.16 22.94 15.5 22.28C16.69 22 17.4 21.12 17.61 20.23C17.78 19.43 17.46 18.77 17.33 18C17.21 17.26 17.23 16.63 17.5 15.94C17.69 16.32 17.89 16.7 18.13 17C18.9 18 20.11 18.44 20.37 19.8C20.41 19.94 20.43 20.08 20.43 20.23C20.46 21.05 20.1 21.95 19.5 22.5Z" fill="#52C3FF"/>
</svg>
