<svg width="36" height="36" viewBox="0 0 36 36" fill="none" xmlns="http://www.w3.org/2000/svg">
<circle cx="18" cy="18" r="18" fill="#F9AE2B"/>
<path d="M21.6699 12.8307L23.1694 14.3302M22.6339 11.5096L18.5773 15.5662C18.3677 15.7756 18.2247 16.0422 18.1665 16.3327L17.7917 18.2083L19.6674 17.8329C19.9578 17.7748 20.2242 17.6325 20.4338 17.4228L24.4905 13.3662C24.6124 13.2443 24.7091 13.0995 24.775 12.9403C24.841 12.781 24.875 12.6103 24.875 12.4379C24.875 12.2655 24.841 12.0948 24.775 11.9355C24.7091 11.7762 24.6124 11.6315 24.4905 11.5096C24.3686 11.3877 24.2238 11.291 24.0646 11.2251C23.9053 11.1591 23.7346 11.1251 23.5622 11.1251C23.3898 11.1251 23.2191 11.1591 23.0598 11.2251C22.9005 11.291 22.7558 11.3877 22.6339 11.5096Z" stroke="#F8F8F8" stroke-width="1.5" stroke-linecap="round" stroke-linejoin="round"/>
<path d="M23.4584 19.625V21.75C23.4584 22.1257 23.3091 22.4861 23.0434 22.7518C22.7778 23.0174 22.4174 23.1667 22.0417 23.1667H14.25C13.8743 23.1667 13.514 23.0174 13.2483 22.7518C12.9826 22.4861 12.8334 22.1257 12.8334 21.75V13.9584C12.8334 13.5826 12.9826 13.2223 13.2483 12.9566C13.514 12.6909 13.8743 12.5417 14.25 12.5417H16.375" stroke="#F8F8F8" stroke-width="1.5" stroke-linecap="round" stroke-linejoin="round"/>
</svg>
