<svg width="34" height="34" viewBox="0 0 34 34" fill="none" xmlns="http://www.w3.org/2000/svg">
<circle cx="17" cy="17" r="17" fill="white"/>
<path d="M17.0834 23.4583L17.0001 23.5417L16.9084 23.4583C12.9501 19.8667 10.3334 17.4917 10.3334 15.0833C10.3334 13.4167 11.5834 12.1667 13.2501 12.1667C14.5334 12.1667 15.7834 13 16.2251 14.1333H17.7751C18.2167 13 19.4667 12.1667 20.7501 12.1667C22.4167 12.1667 23.6667 13.4167 23.6667 15.0833C23.6667 17.4917 21.0501 19.8667 17.0834 23.4583ZM20.7501 10.5C19.3001 10.5 17.9084 11.175 17.0001 12.2333C16.0917 11.175 14.7001 10.5 13.2501 10.5C10.6834 10.5 8.66675 12.5083 8.66675 15.0833C8.66675 18.225 11.5001 20.8 15.7917 24.6917L17.0001 25.7917L18.2084 24.6917C22.5001 20.8 25.3334 18.225 25.3334 15.0833C25.3334 12.5083 23.3167 10.5 20.7501 10.5Z" fill="#52C3FF"/>
</svg>
