<svg width="34" height="34" viewBox="0 0 34 34" fill="none" xmlns="http://www.w3.org/2000/svg">
<circle cx="17" cy="17" r="17" fill="#7F8EC4"/>
<path d="M14 13.9375C14 12.6275 15.0762 11.5625 16.4 11.5625H17.6C18.9237 11.5625 20 12.6275 20 13.9375V14.0711C20 14.8801 19.5837 15.6334 18.8975 16.0676L17.315 17.0732C16.8503 17.3689 16.4681 17.7752 16.2034 18.255C15.9387 18.7348 15.8 19.2727 15.8 19.8193V19.875C15.8 20.5318 16.3362 21.0625 17 21.0625C17.6637 21.0625 18.2 20.5318 18.2 19.875V19.823C18.2 19.5188 18.3575 19.2367 18.6125 19.0734L20.195 18.0678C21.5675 17.192 22.4 15.6891 22.4 14.0711V13.9375C22.4 11.3139 20.2512 9.1875 17.6 9.1875H16.4C13.7487 9.1875 11.6 11.3139 11.6 13.9375C11.6 14.5943 12.1362 15.125 12.8 15.125C13.4637 15.125 14 14.5943 14 13.9375ZM17 25.8125C17.3978 25.8125 17.7793 25.6561 18.0606 25.3777C18.3419 25.0994 18.5 24.7218 18.5 24.3281C18.5 23.9344 18.3419 23.5569 18.0606 23.2785C17.7793 23.0001 17.3978 22.8438 17 22.8438C16.6022 22.8438 16.2206 23.0001 15.9393 23.2785C15.658 23.5569 15.5 23.9344 15.5 24.3281C15.5 24.7218 15.658 25.0994 15.9393 25.3777C16.2206 25.6561 16.6022 25.8125 17 25.8125Z" fill="white"/>
</svg>
