<svg width="34" height="34" viewBox="0 0 34 34" fill="none" xmlns="http://www.w3.org/2000/svg">
<circle cx="17" cy="17" r="17" fill="#54AD67"/>
<path d="M20.125 9.5H21C21.232 9.5 21.4546 9.59219 21.6187 9.75628C21.7828 9.92038 21.875 10.1429 21.875 10.375V13.4375M24.5 11.25C24.731 11.348 24.955 11.4399 25.172 11.5256C25.3856 11.6163 25.5544 11.788 25.6414 12.0032C25.7284 12.2183 25.7263 12.4591 25.6357 12.6727L23.625 17.375M10.1535 12.2974L16.3992 9.577C16.5023 9.53283 16.6131 9.50973 16.7253 9.50908C16.8374 9.50843 16.9485 9.53024 17.0521 9.57322C17.1557 9.61619 17.2496 9.67947 17.3283 9.75931C17.407 9.83916 17.469 9.93396 17.5105 10.0381L21.819 20.4524C21.9085 20.6636 21.9116 20.9015 21.8275 21.1149C21.7433 21.3283 21.5788 21.5001 21.3692 21.5934L15.1243 24.3138C15.0212 24.3581 14.9103 24.3813 14.7981 24.382C14.6858 24.3827 14.5746 24.3609 14.4709 24.3179C14.3673 24.275 14.2733 24.2116 14.1945 24.1317C14.1157 24.0518 14.0537 23.9569 14.0122 23.8526L9.70372 13.4375C9.61416 13.2263 9.61112 12.9884 9.69523 12.775C9.77935 12.5616 9.94391 12.3907 10.1535 12.2974Z" stroke="#F8F8F8" stroke-width="2" stroke-linecap="round" stroke-linejoin="round"/>
</svg>
