<svg width="38" height="38" viewBox="0 0 38 38" fill="none" xmlns="http://www.w3.org/2000/svg">
<path fill-rule="evenodd" clip-rule="evenodd" d="M7.91675 19C7.91675 12.8788 12.8789 7.91667 19.0001 7.91667C25.1212 7.91667 30.0834 12.8788 30.0834 19C30.0834 21.4898 29.2625 23.7872 27.877 25.6373L29.6195 27.3806C29.7707 27.5266 29.8913 27.7014 29.9743 27.8945C30.0573 28.0877 30.101 28.2955 30.1028 28.5057C30.1046 28.7159 30.0646 28.9244 29.985 29.119C29.9054 29.3136 29.7878 29.4904 29.6391 29.639C29.4905 29.7877 29.3137 29.9053 29.1191 29.9849C28.9245 30.0645 28.716 30.1046 28.5058 30.1027C28.2955 30.1009 28.0878 30.0572 27.8946 29.9742C27.7014 29.8913 27.5267 29.7706 27.3807 29.6194L25.6374 27.877C23.7228 29.3127 21.3933 30.0871 19.0001 30.0833C12.8789 30.0833 7.91675 25.1212 7.91675 19ZM25.605 23.366L23.2862 21.0465C23.1391 20.8995 22.9644 20.7829 22.7723 20.7034C22.5801 20.6238 22.3742 20.5829 22.1662 20.583C21.9582 20.5831 21.7523 20.6241 21.5602 20.7038C21.3681 20.7834 21.1935 20.9001 21.0465 21.0473C20.8995 21.1944 20.7829 21.369 20.7034 21.5612C20.6239 21.7533 20.583 21.9593 20.5831 22.1672C20.5832 22.5872 20.7502 22.99 21.0473 23.2869L23.3661 25.6049C22.0718 26.4628 20.5529 26.9191 19.0001 26.9167C14.6277 26.9167 11.0834 23.3724 11.0834 19C11.0834 14.6276 14.6277 11.0833 19.0001 11.0833C23.3725 11.0833 26.9167 14.6276 26.9167 19C26.9167 20.6134 26.4338 22.1144 25.605 23.366Z" fill="#48444E"/>
</svg>
