<svg width="31" height="31" viewBox="0 0 31 31" fill="none" xmlns="http://www.w3.org/2000/svg">
<path d="M25.8332 10.3333L18.0832 3.53916C17.3728 2.90372 16.453 2.55241 15.4999 2.55241C14.5467 2.55241 13.627 2.90372 12.9165 3.53916L5.16655 10.3333C4.75627 10.7003 4.42887 11.1504 4.20615 11.6537C3.98343 12.1571 3.8705 12.7021 3.87488 13.2525V24.5417C3.87488 25.5694 4.28314 26.555 5.00984 27.2817C5.73654 28.0084 6.72216 28.4167 7.74988 28.4167H23.2499C24.2776 28.4167 25.2632 28.0084 25.9899 27.2817C26.7166 26.555 27.1249 25.5694 27.1249 24.5417V13.2396C27.1274 12.6913 27.0136 12.1488 26.7909 11.6478C26.5683 11.1468 26.2418 10.6988 25.8332 10.3333ZM18.0832 25.8333H12.9165V19.375C12.9165 19.0324 13.0526 18.7039 13.2949 18.4616C13.5371 18.2194 13.8656 18.0833 14.2082 18.0833H16.7915C17.1341 18.0833 17.4627 18.2194 17.7049 18.4616C17.9471 18.7039 18.0832 19.0324 18.0832 19.375V25.8333ZM24.5415 24.5417C24.5415 24.8842 24.4055 25.2128 24.1632 25.455C23.921 25.6972 23.5925 25.8333 23.2499 25.8333H20.6665V19.375C20.6665 18.3473 20.2583 17.3617 19.5316 16.635C18.8049 15.9082 17.8193 15.5 16.7915 15.5H14.2082C13.1805 15.5 12.1949 15.9082 11.4682 16.635C10.7415 17.3617 10.3332 18.3473 10.3332 19.375V25.8333H7.74988C7.40731 25.8333 7.07877 25.6972 6.83653 25.455C6.5943 25.2128 6.45821 24.8842 6.45821 24.5417V13.2396C6.45844 13.0562 6.49773 12.8749 6.57345 12.7079C6.64917 12.5409 6.7596 12.3919 6.89738 12.2708L14.6474 5.48958C14.8831 5.2825 15.1861 5.16829 15.4999 5.16829C15.8136 5.16829 16.1167 5.2825 16.3524 5.48958L24.1024 12.2708C24.2402 12.3919 24.3506 12.5409 24.4263 12.7079C24.502 12.8749 24.5413 13.0562 24.5415 13.2396V24.5417Z" fill="#48444E"/>
</svg>
