<svg width="34" height="34" viewBox="0 0 34 34" fill="none" xmlns="http://www.w3.org/2000/svg">
<circle cx="17" cy="17" r="17" fill="white"/>
<g clip-path="url(#clip0_119_314)">
<path fill-rule="evenodd" clip-rule="evenodd" d="M16.01 8.629C16.1109 8.4559 16.2554 8.31227 16.4291 8.21245C16.6028 8.11262 16.7997 8.06009 17 8.06009C17.2004 8.06009 17.3972 8.11262 17.571 8.21245C17.7447 8.31227 17.8892 8.4559 17.99 8.629L20.5521 13.0272L25.5278 14.1052C25.7235 14.1477 25.9047 14.2408 26.0532 14.3752C26.2017 14.5095 26.3124 14.6805 26.3743 14.871C26.4362 15.0615 26.447 15.2649 26.4058 15.4608C26.3645 15.6568 26.2726 15.8386 26.1392 15.988L22.7475 19.7839L23.2609 24.8485C23.2811 25.0479 23.2487 25.2492 23.1669 25.4322C23.085 25.6151 22.9566 25.7734 22.7944 25.8913C22.6322 26.0091 22.442 26.0823 22.2427 26.1036C22.0434 26.1249 21.842 26.0936 21.6585 26.0127L17 23.9593L12.3415 26.0127C12.1581 26.0936 11.9567 26.1249 11.7574 26.1036C11.5581 26.0823 11.3678 26.0091 11.2057 25.8913C11.0435 25.7734 10.9151 25.6151 10.8332 25.4322C10.7514 25.2492 10.719 25.0479 10.7392 24.8485L11.2525 19.7839L7.86088 15.9889C7.72726 15.8395 7.63516 15.6577 7.59378 15.4616C7.5524 15.2655 7.56318 15.0619 7.62506 14.8713C7.68694 14.6806 7.79774 14.5096 7.94641 14.3751C8.09508 14.2407 8.27641 14.1476 8.4723 14.1052L13.448 13.0272L16.01 8.629ZM17 10.5714L14.8798 14.2124C14.7996 14.3498 14.6917 14.4691 14.5629 14.5625C14.4341 14.6559 14.2873 14.7215 14.1318 14.7551L10.0141 15.647L12.821 18.7884C13.0355 19.0286 13.139 19.3476 13.107 19.6675L12.6825 23.8594L16.538 22.1599C16.6836 22.0958 16.841 22.0627 17 22.0627C17.1591 22.0627 17.3165 22.0958 17.462 22.1599L21.3175 23.8594L20.8931 19.6675C20.877 19.5092 20.894 19.3493 20.9431 19.1979C20.9922 19.0466 21.0723 18.9071 21.1782 18.7884L23.986 15.647L19.8683 14.7551C19.7128 14.7215 19.5659 14.6559 19.4372 14.5625C19.3084 14.4691 19.2005 14.3498 19.1203 14.2124L17 10.5714Z" fill="#52C3FF"/>
</g>
<defs>
<clipPath id="clip0_119_314">
<rect width="22" height="22" fill="white" transform="translate(6 6)"/>
</clipPath>
</defs>
</svg>
