<svg width="36" height="36" viewBox="0 0 36 36" fill="none" xmlns="http://www.w3.org/2000/svg">
<circle cx="18" cy="18" r="18" fill="#54AD67"/>
<g clip-path="url(#clip0_107_307)">
<mask id="mask0_107_307" style="mask-type:luminance" maskUnits="userSpaceOnUse" x="11" y="10" width="15" height="15">
<path d="M11 10H26V25H11V10Z" fill="white"/>
</mask>
<g mask="url(#mask0_107_307)">
<path fill-rule="evenodd" clip-rule="evenodd" d="M24.1297 16.6881L16.1562 12.0785C16.0137 11.9962 15.8521 11.9529 15.6875 11.9529C15.5229 11.9529 15.3613 11.9962 15.2188 12.0785C15.0762 12.1607 14.9579 12.2791 14.8756 12.4216C14.7933 12.5641 14.75 12.7258 14.75 12.8903V22.1097C14.75 22.2743 14.7933 22.4359 14.8756 22.5785C14.9579 22.721 15.0762 22.8393 15.2188 22.9216C15.3613 23.0039 15.5229 23.0472 15.6875 23.0472C15.8521 23.0472 16.0137 23.0039 16.1562 22.9216L24.1297 18.3119C24.2722 18.2296 24.3905 18.1113 24.4728 17.9688C24.5551 17.8262 24.5984 17.6646 24.5984 17.5C24.5984 17.3355 24.5551 17.1738 24.4728 17.0313C24.3905 16.8888 24.2722 16.7704 24.1297 16.6881ZM24.8337 19.5288C26.3947 18.6269 26.3947 16.3731 24.8337 15.4703L16.8603 10.8606C15.2984 9.95784 13.3438 11.0856 13.3438 12.8903V22.1097C13.3438 23.9144 15.2984 25.0422 16.8603 24.1385L24.8337 19.5288Z" fill="white"/>
</g>
</g>
<defs>
<clipPath id="clip0_107_307">
<rect width="15" height="15" fill="white" transform="translate(11 10)"/>
</clipPath>
</defs>
</svg>
